# This file uses centimeters as units for non-parametric coordinates.

mtllib plant02_renderplane.mtl
g default
v -32.323633 -5.858099 3.832517
v 32.323633 -5.858099 3.832517
v -32.323633 58.789168 3.832517
v 32.323633 58.789168 3.832517
vt 0.000000 0.000000
vt 1.000000 0.000000
vt 0.000000 1.000000
vt 1.000000 1.000000
vn 0.000000 0.000000 1.000000
vn 0.000000 0.000000 1.000000
vn 0.000000 0.000000 1.000000
vn 0.000000 0.000000 1.000000
s off
g pPlane8
usemtl initialShadingGroup
f 1/1/1 2/2/2 4/4/3 3/3/4
